<svg xmlns="http://www.w3.org/2000/svg" xmlns:xlink="http://www.w3.org/1999/xlink" width="69.03" height="74.215" viewBox="0 0 69.03 74.215">
  <defs>
    <clipPath id="clip-path">
      <rect id="Rectangle_25" data-name="Rectangle 25" width="69.03" height="74.215" fill="#fff"/>
    </clipPath>
  </defs>
  <g id="Group_30" data-name="Group 30" clip-path="url(#clip-path)">
    <path id="Path_69" data-name="Path 69" d="M34.071,165.866q-1.522.132-3.039.317c-.325.04-.6.468-.9.718.339.178.671.37,1.02.524.1.045.254-.023.384-.029q9.018-.421,18.038-.832a16,16,0,0,1,1.844.123c.009.145.019.292.027.438-.727.1-1.453.217-2.182.315-3.557.482-7.119.94-10.67,1.471-.405.061-.749.529-1.121.808a4.215,4.215,0,0,0,1.288.491c5.1.133,10.2.213,15.305.336a4.633,4.633,0,0,1,1.2.369l-.031.39c-.517.112-1.04.2-1.548.338-2.7.758-5.4,1.5-8.071,2.33-.378.118-.613.695-.915,1.059a6.717,6.717,0,0,0,1.353.429c2.657.272,5.32.478,7.977.764a5.024,5.024,0,0,1,1.361.61,33.161,33.161,0,0,0-3.379,2.334c-.627.556-.88,1.379.4,1.695.25.062.446.341.671.514.332.251.74.759.985.689a4.755,4.755,0,0,0,1.33-.913c-.3-.382-.591-.765-.891-1.146-.169-.214-.516-.472-.474-.626a.953.953,0,0,1,.624-.547c1.052-.228,2.126-.355,3.178-.579a6.731,6.731,0,0,0,1.213-.513c-.255-.362-.433-.925-.776-1.053-2.213-.828-4.458-1.566-6.7-2.321-.406-.136-.832-.216-1.249-.321l0-.41c.641-.172,1.273-.389,1.924-.508a43.811,43.811,0,0,1,12.941-.331,4.441,4.441,0,0,0,1.467-.367c-.386-.32-.733-.843-1.164-.926-4.12-.794-8.254-1.51-12.382-2.261-.492-.09-.972-.241-1.458-.365.02-.131.038-.261.057-.393.714-.075,1.428-.193,2.145-.218,7.618-.27,15.237-.516,22.854-.8a4.467,4.467,0,0,0,1.319-.508c-.42-.26-.827-.714-1.266-.749q-2.268-.18-4.542-.284" transform="translate(-19.591 -107.858)" fill="#fff"/>
    <path id="Path_70" data-name="Path 70" d="M18.46,3.939A34.312,34.312,0,0,0,.187,38.383a32.259,32.259,0,0,0,4.5,13.58c.228.378.846.522,1.283.776A9.676,9.676,0,0,0,6.02,51.26a2.512,2.512,0,0,0-.418-.8A32.465,32.465,0,0,1,1.47,34.673,31.355,31.355,0,0,1,3,24.564a32.995,32.995,0,1,1,60.26,26.06c-.333.593-1.292,1.4-.281,1.993s1.275-.608,1.6-1.218c5.785-10.93,5.965-21.967.386-33.009-8.4-16.616-30.13-23.339-46.5-14.451" transform="translate(0 0)" fill="#fff"/>
    <path id="Path_71" data-name="Path 71" d="M79.436,139.752H34.855V124.631H79.436Zm-43.182-1.4H78.037V126.03H36.254Z" transform="translate(-22.665 -81.044)" fill="#fff"/>
    <path id="Path_72" data-name="Path 72" d="M81.738,82.37H41.875V57.491H81.738Zm-38.464-1.4H80.338V58.89H43.274Z" transform="translate(-27.23 -37.385)" fill="#fff"/>
    <path id="Path_73" data-name="Path 73" d="M83.865,45.161h-35.1V36.379h35.1Zm-33.7-1.4h32.3V37.778h-32.3Z" transform="translate(-31.712 -23.656)" fill="#fff"/>
    <path id="Path_74" data-name="Path 74" d="M93.465,82.37H81.53V57.491H93.465Zm-10.536-1.4h9.137V58.89H82.929Z" transform="translate(-53.017 -37.385)" fill="#fff"/>
  </g>
</svg>
